<svg xmlns="http://www.w3.org/2000/svg" xmlns:xlink="http://www.w3.org/1999/xlink" width="123" height="41" viewBox="0 0 123 41">
    <defs>
        <path id="prefix__a" d="M0 0L122.655 0 122.655 41 0 41z"/>
        <path id="prefix__c" d="M0 41L122.656 41 122.656 0 0 0z"/>
    </defs>
    <g fill="none" fill-rule="evenodd">
        <g>
            <mask id="prefix__b" fill="#fff">
                <use xlink:href="#prefix__a"/>
            </mask>
            <path fill="#A6A6A6" d="M112.888 0H9.773c-.376 0-.747 0-1.122.002-.314.002-.625.008-.942.013-.688.008-1.375.069-2.054.18-.678.117-1.335.333-1.949.643-.612.315-1.172.722-1.658 1.209-.49.486-.897 1.046-1.208 1.661C.53 4.322.312 4.98.2 5.66.085 6.338.023 7.024.015 7.711c-.01.315-.01.63-.015.944v23.693c.005.318.006.626.015.944.008.688.07 1.373.185 2.052.111.68.328 1.338.64 1.953.31.613.718 1.171 1.208 1.654.485.489 1.044.897 1.658 1.209.614.311 1.271.528 1.949.646.68.111 1.366.172 2.054.18.317.008.628.012.942.012.375.002.746.002 1.122.002h103.115c.368 0 .743 0 1.111-.002.313 0 .633-.004.945-.011.687-.009 1.373-.069 2.05-.18.68-.119 1.339-.337 1.956-.648.614-.311 1.174-.719 1.657-1.208.49-.485.897-1.043 1.212-1.654.31-.615.524-1.273.634-1.953.114-.678.179-1.364.191-2.052.003-.318.003-.626.003-.944.008-.373.008-.743.008-1.121V9.774c0-.375 0-.747-.008-1.119 0-.314 0-.63-.003-.944-.012-.687-.077-1.373-.19-2.052-.111-.679-.325-1.337-.635-1.95-.632-1.234-1.636-2.237-2.869-2.87-.617-.31-1.275-.527-1.956-.643-.677-.113-1.363-.173-2.05-.18-.312-.006-.632-.012-.945-.014C113.631 0 113.256 0 112.89 0" mask="url(#prefix__b)"/>
        </g>
        <path fill="#000" d="M8.656 40.103c-.313 0-.617-.004-.927-.011-.641-.008-1.282-.064-1.915-.167-.592-.102-1.164-.291-1.699-.562-.53-.267-1.014-.62-1.432-1.041-.424-.418-.778-.901-1.046-1.432-.27-.534-.458-1.107-.557-1.699-.105-.635-.162-1.278-.17-1.921-.006-.217-.015-.936-.015-.936V8.655s.009-.708.015-.916c.008-.644.065-1.284.17-1.919.098-.593.285-1.167.557-1.703.267-.531.618-1.015 1.04-1.433.421-.423.906-.776 1.437-1.049.534-.27 1.105-.457 1.695-.558C6.445.974 7.088.917 7.731.91l.925-.012h105.338l.936.013c.639.007 1.275.063 1.905.166.596.102 1.173.29 1.712.562 1.065.548 1.93 1.416 2.476 2.48.267.534.453 1.103.549 1.69.106.64.166 1.287.177 1.935.003.29.003.603.003.912.009.385.009.75.009 1.12v21.452c0 .372 0 .736-.009 1.102 0 .333 0 .638-.004.953-.011.636-.07 1.27-.174 1.9-.096.595-.283 1.173-.553 1.71-.271.527-.623 1.006-1.042 1.422-.418.424-.903.778-1.435 1.047-.538.273-1.114.463-1.709.564-.634.103-1.275.159-1.916.167-.3.007-.614.011-.92.011l-1.11.002-104.233-.002z"/>
        <path fill="#FFF" d="M25.388 20.808c.022-1.739.934-3.345 2.415-4.255-.939-1.341-2.455-2.161-4.09-2.212-1.722-.18-3.39 1.03-4.268 1.03-.894 0-2.243-1.012-3.698-.982-1.914.061-3.654 1.123-4.585 2.796-1.982 3.432-.504 8.476 1.395 11.25.95 1.36 2.06 2.877 3.514 2.822 1.422-.058 1.953-.906 3.668-.906 1.7 0 2.2.906 3.681.872 1.525-.024 2.487-1.365 3.404-2.736.682-.968 1.208-2.037 1.556-3.17-1.812-.766-2.99-2.542-2.992-4.509M22.588 12.516c.832-.998 1.241-2.282 1.143-3.578-1.271.134-2.446.741-3.288 1.701-.833.948-1.254 2.188-1.173 3.446 1.289.013 2.511-.565 3.318-1.569M39.01 26.23h3.846l-1.896-5.583h-.052l-1.897 5.584zm4.35 1.588h-4.852l-1.165 3.44h-2.055l4.596-12.728h2.135l4.595 12.728h-2.09l-1.164-3.44zM54.58 26.619c0-1.879-.97-3.114-2.452-3.114-1.456 0-2.434 1.26-2.434 3.114 0 1.87.978 3.122 2.434 3.122 1.482 0 2.453-1.226 2.453-3.122m1.957 0c0 2.883-1.543 4.737-3.872 4.737-1.204.063-2.338-.568-2.92-1.624h-.044v4.596h-1.905v-12.35h1.844v1.545h.035c.608-1.05 1.744-1.68 2.955-1.642 2.356 0 3.907 1.862 3.907 4.738M64.795 26.619c0-1.879-.97-3.114-2.453-3.114-1.455 0-2.434 1.26-2.434 3.114 0 1.87.979 3.122 2.434 3.122 1.482 0 2.453-1.226 2.453-3.122m1.958 0c0 2.883-1.544 4.737-3.873 4.737-1.204.063-2.339-.568-2.92-1.624h-.044v4.596h-1.905v-12.35h1.844v1.545h.035c.607-1.05 1.743-1.68 2.955-1.642 2.356 0 3.908 1.862 3.908 4.738M73.504 27.712c.141 1.262 1.367 2.091 3.043 2.091 1.605 0 2.76-.83 2.76-1.967 0-.988-.697-1.58-2.346-1.984l-1.65-.398c-2.337-.565-3.422-1.657-3.422-3.432 0-2.195 1.914-3.704 4.631-3.704 2.689 0 4.534 1.509 4.596 3.704h-1.923c-.115-1.27-1.165-2.036-2.7-2.036-1.534 0-2.583.776-2.583 1.904 0 .9.67 1.43 2.31 1.835l1.402.344c2.612.618 3.697 1.667 3.697 3.53 0 2.38-1.898 3.872-4.915 3.872-2.822 0-4.728-1.457-4.85-3.759h1.95zM85.43 19.782v2.197h1.765v1.508H85.43v5.116c0 .795.354 1.165 1.13 1.165.209-.004.418-.017.626-.044v1.5c-.35.065-.704.095-1.058.088-1.878 0-2.611-.706-2.611-2.506v-5.32h-1.35V21.98h1.349v-2.197h1.914zM95.08 26.619c0-2.003-.919-3.185-2.461-3.185-1.544 0-2.461 1.191-2.461 3.185 0 2.011.917 3.184 2.46 3.184s2.462-1.173 2.462-3.184m-6.863 0c0-2.92 1.72-4.755 4.402-4.755 2.69 0 4.402 1.835 4.402 4.755 0 2.927-1.703 4.755-4.402 4.755-2.7 0-4.402-1.828-4.402-4.755M98.591 21.979h1.816v1.58h.045c.254-1.018 1.184-1.718 2.232-1.678.22 0 .439.024.653.072v1.781c-.278-.085-.567-.123-.856-.114-1.06-.043-1.953.78-1.996 1.84-.004.098 0 .196.01.295v5.504h-1.904v-9.28zM105.68 25.763h4.64c.068-1.23-.874-2.284-2.105-2.352-.058-.003-.115-.004-.171-.003-1.299-.008-2.357 1.038-2.364 2.335v.02zm6.44 2.77c-.257 1.685-1.897 2.841-3.996 2.841-2.7 0-4.376-1.809-4.376-4.71 0-2.912 1.685-4.8 4.296-4.8 2.567 0 4.182 1.764 4.182 4.578v.653h-6.555v.115c-.118 1.329.864 2.504 2.194 2.62.1.01.201.012.303.009.923.087 1.796-.445 2.143-1.306h1.808zM37.513 14.2h1.153c1.06.064 1.97-.745 2.033-1.805.009-.13.003-.264-.016-.394.144-1.055-.594-2.028-1.648-2.172-.122-.018-.246-.023-.37-.016h-1.152V14.2zm1.26-5.25c1.49-.108 2.784 1.014 2.89 2.504.014.179.01.357-.013.535 0 1.953-1.056 3.077-2.878 3.077h-2.21V8.949h2.21zM46.139 12.756c0-1-.449-1.586-1.238-1.586-.791 0-1.237.585-1.237 1.586 0 1.008.446 1.588 1.237 1.588.79 0 1.238-.584 1.238-1.588m-3.416 0c-.115-1.203.766-2.27 1.968-2.386 1.202-.114 2.27.767 2.385 1.97.013.138.013.277 0 .416.117 1.202-.763 2.27-1.964 2.389-1.202.116-2.272-.764-2.39-1.965-.013-.142-.013-.283 0-.424M52.863 15.065L51.917 15.065 50.963 11.666 50.891 11.666 49.941 15.065 49.005 15.065 47.733 10.45 48.657 10.45 49.484 13.972 49.553 13.972 50.501 10.45 51.375 10.45 52.324 13.972 52.396 13.972 53.219 10.45 54.129 10.45zM55.2 10.45h.876v.733h.069c.237-.54.79-.87 1.377-.822.827-.062 1.547.557 1.61 1.384.008.111.004.222-.013.332v2.988h-.91v-2.759c0-.742-.323-1.11-.996-1.11-.584-.028-1.08.424-1.107 1.008-.003.054-.001.107.005.161v2.7H55.2V10.45z"/>
        <mask id="prefix__d" fill="#fff">
            <use xlink:href="#prefix__c"/>
        </mask>
        <path fill="#FFF" d="M60.571 15.066L61.483 15.066 61.483 8.648 60.571 8.648zM66.165 12.756c0-1-.45-1.586-1.239-1.586-.79 0-1.237.585-1.237 1.586 0 1.008.446 1.588 1.237 1.588.79 0 1.239-.584 1.239-1.588m-3.417 0c-.115-1.203.767-2.27 1.97-2.386 1.202-.114 2.27.767 2.384 1.97.014.138.014.277 0 .416.116 1.202-.763 2.27-1.966 2.389-1.202.116-2.27-.764-2.388-1.966-.014-.14-.014-.283 0-.423M71.028 13.366v-.386l-1.127.072c-.636.042-.924.258-.924.665 0 .416.361.657.856.657.598.06 1.132-.374 1.191-.972l.004-.036m-2.967.394c0-.831.619-1.31 1.717-1.377l1.25-.073v-.398c0-.488-.322-.763-.945-.763-.508 0-.86.187-.961.513h-.883c.094-.793.84-1.302 1.886-1.302 1.157 0 1.81.576 1.81 1.552v3.153h-.877v-.649h-.072c-.298.474-.828.752-1.387.725-.766.08-1.451-.476-1.53-1.242-.006-.046-.008-.093-.008-.139M74.073 12.756c0 .978.462 1.568 1.233 1.568.768 0 1.243-.598 1.243-1.564 0-.963-.48-1.569-1.243-1.569-.766 0-1.233.594-1.233 1.565m-.94 0c0-1.46.749-2.383 1.915-2.383.588-.027 1.14.288 1.416.81h.067V8.648h.911v6.417h-.872v-.729h-.073c-.296.517-.854.827-1.449.806-1.174 0-1.916-.925-1.916-2.386M84.628 12.756c0-1-.45-1.586-1.239-1.586-.79 0-1.237.585-1.237 1.586 0 1.008.446 1.588 1.237 1.588.79 0 1.239-.584 1.239-1.588m-3.417 0c-.115-1.203.766-2.27 1.968-2.386 1.203-.114 2.27.767 2.385 1.97.014.138.014.277 0 .416.116 1.202-.762 2.27-1.964 2.389-1.203.116-2.273-.764-2.389-1.965-.014-.142-.014-.283 0-.424M86.787 10.45h.876v.733h.069c.235-.54.789-.87 1.377-.822.825-.062 1.546.557 1.609 1.384.009.111.005.222-.012.332v2.988h-.91v-2.759c0-.742-.323-1.11-.996-1.11-.585-.028-1.08.424-1.107 1.008-.003.054-.001.107.005.161v2.7h-.911V10.45zM95.853 9.3v1.171h1v.767h-1v2.374c0 .483.2.695.653.695.116-.001.231-.008.348-.022v.76c-.165.028-.33.044-.496.046-1.013 0-1.417-.357-1.417-1.247v-2.606h-.732v-.767h.732v-1.17h.912zM98.098 8.648H99v2.543h.072c.247-.544.81-.875 1.406-.826.84-.046 1.556.596 1.602 1.435.005.095 0 .19-.012.286v2.98h-.912V12.31c0-.737-.343-1.11-.987-1.11-.593-.049-1.113.393-1.162.986-.005.06-.005.122.001.184v2.696h-.911V8.648zM104.176 12.332h2.33c.047-.614-.414-1.148-1.028-1.193-.035-.004-.071-.004-.107-.004-.652-.007-1.186.514-1.194 1.167v.03h-.001zm3.205 1.487c-.256.871-1.098 1.433-2 1.336-1.158.03-2.122-.883-2.151-2.041-.003-.114.003-.229.02-.342-.158-1.165.66-2.236 1.826-2.392.1-.013.2-.02.301-.02 1.284 0 2.06.878 2.06 2.327v.318h-3.26v.051c-.058.672.441 1.262 1.113 1.318.038.004.077.006.116.005.446.053.88-.169 1.097-.56h.878z" mask="url(#prefix__d)"/>
    </g>
</svg>
