<svg xmlns="http://www.w3.org/2000/svg" version="1.1" xmlns:xlink="http://www.w3.org/1999/xlink" xmlns:svgjs="http://svgjs.com/svgjs" viewBox="0 0 140 140" width="140" height="140"><g transform="matrix(5.833333333333333,0,0,5.833333333333333,0,0)"><path d="M12.75,12.75H2.25a1.5,1.5,0,0,1-1.5-1.5v-9A1.5,1.5,0,0,1,2.25.75h18a1.5,1.5,0,0,1,1.5,1.5v6" fill="none" stroke="#1125a9" stroke-linecap="round" stroke-linejoin="round" stroke-width="1.5"></path><path d="M5.25,6.375a.375.375,0,1,1-.375.375.374.374,0,0,1,.375-.375" fill="none" stroke="#1125a9" stroke-linecap="round" stroke-linejoin="round" stroke-width="1.5"></path><path d="M11.25,6.375a.375.375,0,1,1-.375.375.374.374,0,0,1,.375-.375" fill="none" stroke="#1125a9" stroke-linecap="round" stroke-linejoin="round" stroke-width="1.5"></path><path d="M17.25,6.375a.375.375,0,1,1-.375.375.374.374,0,0,1,.375-.375" fill="none" stroke="#1125a9" stroke-linecap="round" stroke-linejoin="round" stroke-width="1.5"></path><path d="M14.250 15.750 L23.250 15.750 L23.250 23.250 L14.250 23.250 Z" fill="none" stroke="#1125a9" stroke-linecap="round" stroke-linejoin="round" stroke-width="1.5"></path><path d="M18.75,11.25h0a3,3,0,0,0-3,3v1.5h6v-1.5A3,3,0,0,0,18.75,11.25Z" fill="none" stroke="#1125a9" stroke-linecap="round" stroke-linejoin="round" stroke-width="1.5"></path><path d="M18.75,19.154a.375.375,0,1,1-.375.375.375.375,0,0,1,.375-.375" fill="none" stroke="#1125a9" stroke-linecap="round" stroke-linejoin="round" stroke-width="1.5"></path></g></svg>