<svg xmlns="http://www.w3.org/2000/svg" version="1.1" xmlns:xlink="http://www.w3.org/1999/xlink" xmlns:svgjs="http://svgjs.com/svgjs" viewBox="0 0 140 140" width="140" height="140"><g transform="matrix(5.833333333333333,0,0,5.833333333333333,0,0)"><path d="M6.814,4.266a6.35,6.35,0,0,0-2.47,2.471" fill="none" stroke="#1125a9" stroke-linecap="round" stroke-linejoin="round" stroke-width="1.5"></path><path d="M5.975,1.5A6.5,6.5,0,0,0,1.5,5.976" fill="none" stroke="#1125a9" stroke-linecap="round" stroke-linejoin="round" stroke-width="1.5"></path><path d="M4.5 18L19.5 18" fill="none" stroke="#1125a9" stroke-linecap="round" stroke-linejoin="round" stroke-width="1.5"></path><path d="M19.5,18S18,16.694,18,12c0-3.75-2.562-7.068-6-7.068S6,8.25,6,12c0,4.719-1.5,6-1.5,6" fill="none" stroke="#1125a9" stroke-linecap="round" stroke-linejoin="round" stroke-width="1.5"></path><path d="M13.5,21a1.5,1.5,0,0,1-3,0" fill="none" stroke="#1125a9" stroke-linecap="round" stroke-linejoin="round" stroke-width="1.5"></path><path d="M12 4.932L12 3" fill="none" stroke="#1125a9" stroke-linecap="round" stroke-linejoin="round" stroke-width="1.5"></path><path d="M17.186,4.266a6.456,6.456,0,0,1,1.408,1.062,6.391,6.391,0,0,1,1.062,1.409" fill="none" stroke="#1125a9" stroke-linecap="round" stroke-linejoin="round" stroke-width="1.5"></path><path d="M18.025,1.5A6.5,6.5,0,0,1,22.5,5.976" fill="none" stroke="#1125a9" stroke-linecap="round" stroke-linejoin="round" stroke-width="1.5"></path></g></svg>